<?xml version="1.0" encoding="UTF-8" standalone="no"?>
<svg width="333px" height="60px" viewBox="0 0 333 60" version="1.1" xmlns="http://www.w3.org/2000/svg" xmlns:xlink="http://www.w3.org/1999/xlink" xmlns:sketch="http://www.bohemiancoding.com/sketch/ns">
    <title>Untitled 13</title>
    <description>Created with Sketch (http://www.bohemiancoding.com/sketch)</description>
    <defs></defs>
    <g id="Page-1" stroke="none" stroke-width="1" fill="none" fill-rule="evenodd" sketch:type="MSPage">
        <g id="logo" sketch:type="MSLayerGroup">
            <path d="M48.479,5 L48.479,33.212 C48.479,34.632 48.037,36.299 47.322,37.843 C46.609,39.383 45.624,40.8 44.541,41.72 L26.74,54.377 L8.939,41.718 C7.856,40.8 6.87,39.383 6.157,37.841 C5.443,36.299 5,34.632 5,33.211 L5,5 L48.479,5 L48.479,5 Z M48.479,0 L5,0 C2.239,0 0,2.239 0,5 L0,33.211 C0,35.885 0.882,38.349 1.622,39.943 C2.358,41.536 3.667,43.803 5.708,45.532 C5.815,45.624 5.927,45.711 6.042,45.792 L23.843,58.452 C24.711,59.068 25.726,59.377 26.741,59.377 C27.756,59.377 28.771,59.068 29.638,58.452 L47.439,45.795 C47.556,45.712 47.669,45.623 47.779,45.53 C49.815,43.801 51.123,41.537 51.86,39.943 C52.599,38.347 53.48,35.883 53.48,33.212 L53.48,5 C53.479,2.239 51.241,0 48.479,0 L48.479,0 L48.479,0 Z" id="Shape" fill="#3FA9F5" sketch:type="MSShapeGroup"></path>
            <path d="M10.385,10.164 L10.385,32.348 C10.385,33.117 10.665,34.18 11.135,35.194 C11.581,36.156 12.177,37.025 12.739,37.535 L26.741,47.492 L40.743,37.535 C41.306,37.025 41.901,36.156 42.347,35.194 C42.816,34.181 43.096,33.117 43.096,32.348 L43.096,10.164 L10.385,10.164 L10.385,10.164 Z M35.74,28.843 L29.748,28.843 L29.748,34.821 L23.732,34.821 L23.732,28.843 L17.732,28.843 L17.732,22.827 L23.732,22.827 L23.732,16.824 L29.748,16.824 L29.748,22.827 L35.74,22.827 L35.74,28.843 L35.74,28.843 L35.74,28.843 Z" id="Shape" fill="#007FAA" sketch:type="MSShapeGroup"></path>
        </g>
        <path d="M67.155,38.018 C68.753008,38.018 69.8496637,37.7908356 70.445,37.3365 C71.0403363,36.8821644 71.338,36.3886693 71.338,35.856 C71.338,35.5113316 71.2831672,35.2136679 71.1735,34.963 C71.0638328,34.7123321 70.8836679,34.4773344 70.633,34.258 C70.3823321,34.0386656 70.0376689,33.8115012 69.599,33.5765 C69.1603311,33.3414988 68.5963368,33.0673349 67.907,32.754 C67.1236627,32.4093316 66.3873368,32.0411686 65.698,31.6495 C65.0086632,31.2578314 64.4055026,30.7878361 63.8885,30.2395 C63.3714974,29.6911639 62.9641682,29.0645035 62.6665,28.3595 C62.3688318,27.6544965 62.22,26.8163382 62.22,25.845 C62.22,23.3069873 63.1521573,21.301674 65.0165,19.829 C66.8808427,18.356326 69.5989821,17.62 73.171,17.62 C74.8630085,17.62 76.3669934,17.8079981 77.683,18.184 C78.9990066,18.5600019 80.0643293,18.9673311 80.879,19.406 L78.482,24.623 C77.8239967,24.2783316 76.9780052,23.9493349 75.944,23.636 C74.9099948,23.3226651 73.8916717,23.166 72.889,23.166 C72.4503311,23.166 72.0195021,23.1894998 71.5965,23.2365 C71.1734979,23.2835002 70.7818351,23.3853326 70.4215,23.542 C70.0611649,23.6986675 69.7713344,23.9179986 69.552,24.2 C69.3326656,24.4820014 69.223,24.8579977 69.223,25.328 C69.223,25.9546698 69.4658309,26.4246651 69.9515,26.738 C70.4371691,27.0513349 71.1186623,27.4273311 71.996,27.866 C73.2180061,28.4613363 74.2363293,29.0096642 75.051,29.511 C75.8656707,30.0123358 76.5158309,30.5449972 77.0015,31.109 C77.4871691,31.6730028 77.8396656,32.3153297 78.059,33.036 C78.2783344,33.7566703 78.388,34.6026618 78.388,35.574 C78.388,36.5766717 78.1765021,37.5636618 77.7535,38.535 C77.3304979,39.5063382 76.6646712,40.3679962 75.756,41.12 C74.8473288,41.8720038 73.688007,42.4829977 72.278,42.953 C70.867993,43.4230024 69.1760099,43.658 67.202,43.658 C65.9799939,43.658 64.8755049,43.5796675 63.8885,43.423 C62.9014951,43.2663326 62.0320038,43.0705012 61.28,42.8355 C60.5279962,42.6004988 59.8935026,42.3576679 59.3765,42.107 C58.8594974,41.8563321 58.4600014,41.6526674 58.178,41.496 L60.575,36.138 C61.1076693,36.4513349 61.9379944,36.8429977 63.066,37.313 C64.1940056,37.7830024 65.556992,38.018 67.155,38.018 Z M86.775,43 L79.819,43 L85.694,18.278 L92.697,18.278 L86.775,43 Z M90.159,15.27 C89.1876618,15.27 88.3103372,14.9801696 87.527,14.4005 C86.7436627,13.8208304 86.352,12.9356726 86.352,11.745 C86.352,11.0869967 86.4851653,10.4681696 86.7515,9.8885 C87.0178347,9.30883044 87.3703311,8.80750212 87.809,8.3845 C88.2476689,7.96149788 88.7568304,7.62466792 89.3365,7.374 C89.9161696,7.12333208 90.5349967,6.998 91.193,6.998 C92.1643382,6.998 93.0416627,7.28783044 93.825,7.8675 C94.6083372,8.44716956 95,9.33232738 95,10.523 C95,11.1810033 94.8668347,11.7998304 94.6005,12.3795 C94.3341653,12.9591696 93.9816689,13.4604979 93.543,13.8835 C93.1043311,14.3065021 92.5951696,14.6433321 92.0155,14.894 C91.4358304,15.1446679 90.8170033,15.27 90.159,15.27 Z M101.319,43.658 C99.7523255,43.658 98.4128389,43.3916693 97.3005,42.859 C96.1881611,42.3263307 95.2795035,41.597838 94.5745,40.6735 C93.8694965,39.749162 93.3525016,38.6681729 93.0235,37.4305 C92.6944984,36.1928271 92.53,34.869007 92.53,33.459 C92.53,31.3283227 92.9138295,29.3151761 93.6815,27.4195 C94.4491705,25.5238239 95.5066599,23.8710071 96.854,22.461 C98.2013401,21.0509929 99.7993241,19.9386707 101.648,19.124 C103.496676,18.3093293 105.517656,17.902 107.711,17.902 C108.275003,17.902 108.799831,17.933333 109.2855,17.996 C109.771169,18.058667 110.264664,18.152666 110.766,18.278 L113.304,7.656 L120.589,6.528 L114.385,32.331 C113.946331,34.1170089 113.820999,35.9108243 114.009,37.7125 C114.197001,39.5141757 114.557331,41.1199929 115.09,42.53 L108.839,43.423 C108.650999,43.0469981 108.478667,42.6866684 108.322,42.342 C108.165333,41.9973316 108.008667,41.6056689 107.852,41.167 C106.974662,41.8876703 105.995505,42.4829977 104.9145,42.953 C103.833495,43.4230024 102.635007,43.658 101.319,43.658 Z M109.403,23.871 C109.214999,23.8396665 109.050501,23.8083335 108.9095,23.777 C108.768499,23.7456665 108.627501,23.7221667 108.4865,23.7065 C108.345499,23.6908333 108.165334,23.683 107.946,23.683 L107.1,23.683 C106.003328,23.683 104.985005,23.9414974 104.045,24.4585 C103.104995,24.9755026 102.29817,25.6726623 101.6245,26.55 C100.95083,27.4273377 100.426002,28.4221611 100.05,29.5345 C99.6739981,30.6468389 99.486,31.7826609 99.486,32.942 C99.486,34.4460075 99.7444974,35.628829 100.2615,36.4905 C100.778503,37.352171 101.71066,37.783 103.058,37.783 C103.77867,37.783 104.436664,37.6420014 105.032,37.36 C105.627336,37.0779986 106.253997,36.6080033 106.912,35.95 C106.974667,35.1666628 107.076499,34.344171 107.2175,33.4825 C107.358501,32.620829 107.507333,31.8296703 107.664,31.109 L109.403,23.871 Z M118.26,33.318 C118.26,31.3126566 118.612496,29.3700094 119.3175,27.49 C120.022504,25.6099906 121.017327,23.9415073 122.302,22.4845 C123.586673,21.0274927 125.145491,19.8525045 126.9785,18.9595 C128.811509,18.0664955 130.840322,17.62 133.065,17.62 C134.161672,17.62 135.179995,17.7766651 136.12,18.09 C137.060005,18.4033349 137.882496,18.8576637 138.5875,19.453 C139.292504,20.0483363 139.840831,20.776829 140.2325,21.6385 C140.624169,22.500171 140.82,23.4793279 140.82,24.576 C140.82,26.3306754 140.428337,27.8189939 139.645,29.041 C138.861663,30.2630061 137.77284,31.2578295 136.3785,32.0255 C134.98416,32.7931705 133.331343,33.3493316 131.42,33.694 C129.508657,34.0386684 127.425011,34.211 125.169,34.211 C125.388334,35.5270066 125.866163,36.4591639 126.6025,37.0075 C127.338837,37.5558361 128.505992,37.83 130.104,37.83 C131.106672,37.83 132.124995,37.7438342 133.159,37.5715 C134.193005,37.3991658 135.164329,37.1406684 136.073,36.796 L136.59,42.295 C135.712662,42.6396684 134.592507,42.9529986 133.2295,43.235 C131.866493,43.5170014 130.386008,43.658 128.788,43.658 C126.845324,43.658 125.208173,43.3838361 123.8765,42.8355 C122.544827,42.2871639 121.463837,41.5430047 120.6335,40.603 C119.803163,39.6629953 119.200002,38.5663396 118.824,37.313 C118.447998,36.0596604 118.26,34.7280071 118.26,33.318 Z M131.937,23.166 C130.338992,23.166 128.936839,23.7378276 127.7305,24.8815 C126.524161,26.0251724 125.733002,27.5369906 125.357,29.417 C127.299676,29.354333 128.866327,29.1898347 130.057,28.9235 C131.247673,28.6571653 132.171997,28.3360019 132.83,27.96 C133.488003,27.5839981 133.926666,27.1766689 134.146,26.738 C134.365334,26.2993311 134.475,25.8606689 134.475,25.422 C134.475,23.9179925 133.629008,23.166 131.937,23.166 Z" id="side" fill="#007FAA" sketch:type="MSShapeGroup"></path>
        <path d="M290.119,34.963 C291.215672,34.963 292.132163,35.2684969 292.8685,35.8795 C293.604837,36.4905031 293.973,37.4539934 293.973,38.77 C293.973,39.4906703 293.839835,40.1486637 293.5735,40.744 C293.307165,41.3393363 292.954669,41.8484979 292.516,42.2715 C292.077331,42.6945021 291.576003,43.0234988 291.012,43.2585 C290.447997,43.4935012 289.868336,43.611 289.273,43.611 C288.176328,43.611 287.259837,43.3055031 286.5235,42.6945 C285.787163,42.0834969 285.419,41.1200066 285.419,39.804 C285.419,39.0833297 285.552165,38.4253363 285.8185,37.83 C286.084835,37.2346637 286.437331,36.7255021 286.876,36.3025 C287.314669,35.8794979 287.815997,35.5505012 288.38,35.3155 C288.944003,35.0804988 289.523664,34.963 290.119,34.963 Z M302.689,43 L295.733,43 L301.608,18.278 L308.611,18.278 L302.689,43 Z M306.073,15.27 C305.101662,15.27 304.224337,14.9801696 303.441,14.4005 C302.657663,13.8208304 302.266,12.9356726 302.266,11.745 C302.266,11.0869967 302.399165,10.4681696 302.6655,9.8885 C302.931835,9.30883044 303.284331,8.80750212 303.723,8.3845 C304.161669,7.96149788 304.67083,7.62466792 305.2505,7.374 C305.83017,7.12333208 306.448997,6.998 307.107,6.998 C308.078338,6.998 308.955663,7.28783044 309.739,7.8675 C310.522337,8.44716956 310.914,9.33232738 310.914,10.523 C310.914,11.1810033 310.780835,11.7998304 310.5145,12.3795 C310.248165,12.9591696 309.895669,13.4604979 309.457,13.8835 C309.018331,14.3065021 308.50917,14.6433321 307.9295,14.894 C307.34983,15.1446679 306.731003,15.27 306.073,15.27 Z M318.22,43.658 C316.559325,43.658 315.118006,43.4073358 313.896,42.906 C312.673994,42.4046642 311.663504,41.6996712 310.8645,40.791 C310.065496,39.8823288 309.462335,38.8091729 309.055,37.5715 C308.647665,36.3338271 308.444,34.9630075 308.444,33.459 C308.444,31.5789906 308.749497,29.6990094 309.3605,27.819 C309.971503,25.9389906 310.872327,24.2470075 312.063,22.743 C313.253673,21.2389925 314.710658,20.0091714 316.434,19.0535 C318.157342,18.0978286 320.131322,17.62 322.356,17.62 C323.985341,17.62 325.418827,17.8706642 326.6565,18.372 C327.894173,18.8733358 328.912496,19.5783288 329.7115,20.487 C330.510504,21.3956712 331.113665,22.4688271 331.521,23.7065 C331.928335,24.9441729 332.132,26.3149925 332.132,27.819 C332.132,29.6990094 331.834336,31.5789906 331.239,33.459 C330.643664,35.3390094 329.766339,37.0309925 328.607,38.535 C327.447661,40.0390075 325.998509,41.2688286 324.2595,42.2245 C322.520491,43.1801714 320.507345,43.658 318.22,43.658 Z M321.698,23.542 C320.663995,23.542 319.755337,23.8396637 318.972,24.435 C318.188663,25.0303363 317.530669,25.7823288 316.998,26.691 C316.465331,27.5996712 316.065835,28.5944946 315.7995,29.6755 C315.533165,30.7565054 315.4,31.7826618 315.4,32.754 C315.4,34.352008 315.650664,35.581829 316.152,36.4435 C316.653336,37.305171 317.561993,37.736 318.878,37.736 C319.912005,37.736 320.820663,37.4383363 321.604,36.843 C322.387337,36.2476637 323.045331,35.4956712 323.578,34.587 C324.110669,33.6783288 324.510165,32.6835054 324.7765,31.6025 C325.042835,30.5214946 325.176,29.4953382 325.176,28.524 C325.176,26.925992 324.925336,25.696171 324.424,24.8345 C323.922664,23.972829 323.014007,23.542 321.698,23.542 Z" id=".io" fill="#007FAA" sketch:type="MSShapeGroup"></path>
        <path d="M142.82,33.318 C142.82,31.3126566 143.172496,29.3700094 143.8775,27.49 C144.582504,25.6099906 145.577327,23.9415073 146.862,22.4845 C148.146673,21.0274927 149.705491,19.8525045 151.5385,18.9595 C153.371509,18.0664955 155.400322,17.62 157.625,17.62 C158.721672,17.62 159.739995,17.7766651 160.68,18.09 C161.620005,18.4033349 162.442496,18.8576637 163.1475,19.453 C163.852504,20.0483363 164.400831,20.776829 164.7925,21.6385 C165.184169,22.500171 165.38,23.4793279 165.38,24.576 C165.38,26.3306754 164.988337,27.8189939 164.205,29.041 C163.421663,30.2630061 162.33284,31.2578295 160.9385,32.0255 C159.54416,32.7931705 157.891343,33.3493316 155.98,33.694 C154.068657,34.0386684 151.985011,34.211 149.729,34.211 C149.948334,35.5270066 150.426163,36.4591639 151.1625,37.0075 C151.898837,37.5558361 153.065992,37.83 154.664,37.83 C155.666672,37.83 156.684995,37.7438342 157.719,37.5715 C158.753005,37.3991658 159.724329,37.1406684 160.633,36.796 L161.15,42.295 C160.272662,42.6396684 159.152507,42.9529986 157.7895,43.235 C156.426493,43.5170014 154.946008,43.658 153.348,43.658 C151.405324,43.658 149.768173,43.3838361 148.4365,42.8355 C147.104827,42.2871639 146.023837,41.5430047 145.1935,40.603 C144.363163,39.6629953 143.760002,38.5663396 143.384,37.313 C143.007998,36.0596604 142.82,34.7280071 142.82,33.318 Z M156.497,23.166 C154.898992,23.166 153.496839,23.7378276 152.2905,24.8815 C151.084161,26.0251724 150.293002,27.5369906 149.917,29.417 C151.859676,29.354333 153.426327,29.1898347 154.617,28.9235 C155.807673,28.6571653 156.731997,28.3360019 157.39,27.96 C158.048003,27.5839981 158.486666,27.1766689 158.706,26.738 C158.925334,26.2993311 159.035,25.8606689 159.035,25.422 C159.035,23.9179925 158.189008,23.166 156.497,23.166 Z M183.496,6.528 C184.906007,6.528 186.135828,6.67683184 187.1855,6.9745 C188.235172,7.27216816 189.026331,7.54633208 189.559,7.797 L187.209,13.296 C186.644997,13.0139986 185.994837,12.8025007 185.2585,12.6615 C184.522163,12.5204993 183.84067,12.45 183.214,12.45 C181.490658,12.45 180.213837,12.8886623 179.3835,13.766 C178.553163,14.6433377 177.981335,15.7399934 177.668,17.056 L177.386,18.278 L185.658,18.278 L184.248,24.012 L176.023,24.012 L173.156,35.997 C172.090661,40.4776891 170.93134,43.9634875 169.678,46.4545 C168.42466,48.9455125 167.046008,50.7549944 165.542,51.883 L159.291,50.99 C160.105671,50.2379962 160.857663,49.3136722 161.547,48.217 C162.236337,47.1203278 162.855164,45.9610061 163.4035,44.739 C163.951836,43.5169939 164.421831,42.2715063 164.8135,41.0025 C165.205169,39.7334937 165.526332,38.5506721 165.777,37.454 L170.665,16.962 C171.448337,13.6406501 172.858323,11.0713424 174.895,9.254 C176.931677,7.43665758 179.798648,6.528 183.496,6.528 Z M203.095,6.528 C204.505007,6.528 205.734828,6.67683184 206.7845,6.9745 C207.834172,7.27216816 208.625331,7.54633208 209.158,7.797 L206.808,13.296 C206.243997,13.0139986 205.593837,12.8025007 204.8575,12.6615 C204.121163,12.5204993 203.43967,12.45 202.813,12.45 C201.089658,12.45 199.812837,12.8886623 198.9825,13.766 C198.152163,14.6433377 197.580335,15.7399934 197.267,17.056 L196.985,18.278 L205.257,18.278 L203.847,24.012 L195.622,24.012 L192.755,35.997 C191.689661,40.4776891 190.53034,43.9634875 189.277,46.4545 C188.02366,48.9455125 186.645008,50.7549944 185.141,51.883 L178.89,50.99 C179.704671,50.2379962 180.456663,49.3136722 181.146,48.217 C181.835337,47.1203278 182.454164,45.9610061 183.0025,44.739 C183.550836,43.5169939 184.020831,42.2715063 184.4125,41.0025 C184.804169,39.7334937 185.125332,38.5506721 185.376,37.454 L190.264,16.962 C191.047337,13.6406501 192.457323,11.0713424 194.494,9.254 C196.530677,7.43665758 199.397648,6.528 203.095,6.528 Z M203.868,33.318 C203.868,31.3126566 204.220496,29.3700094 204.9255,27.49 C205.630504,25.6099906 206.625327,23.9415073 207.91,22.4845 C209.194673,21.0274927 210.753491,19.8525045 212.5865,18.9595 C214.419509,18.0664955 216.448322,17.62 218.673,17.62 C219.769672,17.62 220.787995,17.7766651 221.728,18.09 C222.668005,18.4033349 223.490496,18.8576637 224.1955,19.453 C224.900504,20.0483363 225.448831,20.776829 225.8405,21.6385 C226.232169,22.500171 226.428,23.4793279 226.428,24.576 C226.428,26.3306754 226.036337,27.8189939 225.253,29.041 C224.469663,30.2630061 223.38084,31.2578295 221.9865,32.0255 C220.59216,32.7931705 218.939343,33.3493316 217.028,33.694 C215.116657,34.0386684 213.033011,34.211 210.777,34.211 C210.996334,35.5270066 211.474163,36.4591639 212.2105,37.0075 C212.946837,37.5558361 214.113992,37.83 215.712,37.83 C216.714672,37.83 217.732995,37.7438342 218.767,37.5715 C219.801005,37.3991658 220.772329,37.1406684 221.681,36.796 L222.198,42.295 C221.320662,42.6396684 220.200507,42.9529986 218.8375,43.235 C217.474493,43.5170014 215.994008,43.658 214.396,43.658 C212.453324,43.658 210.816173,43.3838361 209.4845,42.8355 C208.152827,42.2871639 207.071837,41.5430047 206.2415,40.603 C205.411163,39.6629953 204.808002,38.5663396 204.432,37.313 C204.055998,36.0596604 203.868,34.7280071 203.868,33.318 Z M217.545,23.166 C215.946992,23.166 214.544839,23.7378276 213.3385,24.8815 C212.132161,26.0251724 211.341002,27.5369906 210.965,29.417 C212.907676,29.354333 214.474327,29.1898347 215.665,28.9235 C216.855673,28.6571653 217.779997,28.3360019 218.438,27.96 C219.096003,27.5839981 219.534666,27.1766689 219.754,26.738 C219.973334,26.2993311 220.083,25.8606689 220.083,25.422 C220.083,23.9179925 219.237008,23.166 217.545,23.166 Z M226.778,33.13 C226.778,30.9993227 227.122663,28.9940094 227.812,27.114 C228.501337,25.2339906 229.488327,23.589007 230.773,22.179 C232.057673,20.7689929 233.616491,19.6566707 235.4495,18.842 C237.282509,18.0273293 239.326989,17.62 241.583,17.62 C242.993007,17.62 244.254161,17.7531653 245.3665,18.0195 C246.478839,18.2858347 247.489329,18.6383311 248.398,19.077 L246.001,24.529 C245.37433,24.2783321 244.72417,24.0511677 244.0505,23.8475 C243.37683,23.6438323 242.554338,23.542 241.583,23.542 C239.232988,23.542 237.38434,24.3331588 236.037,25.9155 C234.68966,27.4978412 234.016,29.6519864 234.016,32.378 C234.016,33.976008 234.360663,35.2684951 235.05,36.2555 C235.739337,37.2425049 237.008324,37.736 238.857,37.736 C239.765671,37.736 240.642996,37.6420009 241.489,37.454 C242.335004,37.2659991 243.086997,37.0310014 243.745,36.749 L244.262,42.342 C243.384662,42.6866684 242.421172,42.9921653 241.3715,43.2585 C240.321828,43.5248347 239.045008,43.658 237.541,43.658 C235.598324,43.658 233.95334,43.3760028 232.606,42.812 C231.25866,42.2479972 230.146338,41.4881714 229.269,40.5325 C228.391662,39.5768286 227.757169,38.4566731 227.3655,37.172 C226.973831,35.8873269 226.778,34.540007 226.778,33.13 Z M252.649,12.121 L259.934,10.993 L258.148,18.278 L265.95,18.278 L264.54,24.012 L256.785,24.012 L254.717,32.66 C254.528999,33.3806703 254.4115,34.0543302 254.3645,34.681 C254.3175,35.3076698 254.395832,35.8481644 254.5995,36.3025 C254.803168,36.7568356 255.155664,37.1093321 255.657,37.36 C256.158336,37.6106679 256.847662,37.736 257.725,37.736 C258.477004,37.736 259.205496,37.6655007 259.9105,37.5245 C260.615504,37.3834993 261.32833,37.1876679 262.049,36.937 L262.566,42.295 C261.625995,42.6396684 260.607672,42.9373321 259.511,43.188 C258.414328,43.4386679 257.114008,43.564 255.61,43.564 C253.447989,43.564 251.771673,43.2428365 250.581,42.6005 C249.390327,41.9581635 248.544336,41.0808389 248.043,39.9685 C247.541664,38.8561611 247.322333,37.5793405 247.385,36.138 C247.447667,34.6966595 247.666998,33.177008 248.043,31.579 L252.649,12.121 Z M271.517,38.018 C273.115008,38.018 274.211664,37.7908356 274.807,37.3365 C275.402336,36.8821644 275.7,36.3886693 275.7,35.856 C275.7,35.5113316 275.645167,35.2136679 275.5355,34.963 C275.425833,34.7123321 275.245668,34.4773344 274.995,34.258 C274.744332,34.0386656 274.399669,33.8115012 273.961,33.5765 C273.522331,33.3414988 272.958337,33.0673349 272.269,32.754 C271.485663,32.4093316 270.749337,32.0411686 270.06,31.6495 C269.370663,31.2578314 268.767503,30.7878361 268.2505,30.2395 C267.733497,29.6911639 267.326168,29.0645035 267.0285,28.3595 C266.730832,27.6544965 266.582,26.8163382 266.582,25.845 C266.582,23.3069873 267.514157,21.301674 269.3785,19.829 C271.242843,18.356326 273.960982,17.62 277.533,17.62 C279.225008,17.62 280.728993,17.8079981 282.045,18.184 C283.361007,18.5600019 284.426329,18.9673311 285.241,19.406 L282.844,24.623 C282.185997,24.2783316 281.340005,23.9493349 280.306,23.636 C279.271995,23.3226651 278.253672,23.166 277.251,23.166 C276.812331,23.166 276.381502,23.1894998 275.9585,23.2365 C275.535498,23.2835002 275.143835,23.3853326 274.7835,23.542 C274.423165,23.6986675 274.133334,23.9179986 273.914,24.2 C273.694666,24.4820014 273.585,24.8579977 273.585,25.328 C273.585,25.9546698 273.827831,26.4246651 274.3135,26.738 C274.799169,27.0513349 275.480662,27.4273311 276.358,27.866 C277.580006,28.4613363 278.598329,29.0096642 279.413,29.511 C280.227671,30.0123358 280.877831,30.5449972 281.3635,31.109 C281.849169,31.6730028 282.201666,32.3153297 282.421,33.036 C282.640334,33.7566703 282.75,34.6026618 282.75,35.574 C282.75,36.5766717 282.538502,37.5636618 282.1155,38.535 C281.692498,39.5063382 281.026671,40.3679962 280.118,41.12 C279.209329,41.8720038 278.050007,42.4829977 276.64,42.953 C275.229993,43.4230024 273.53801,43.658 271.564,43.658 C270.341994,43.658 269.237505,43.5796675 268.2505,43.423 C267.263495,43.2663326 266.394004,43.0705012 265.642,42.8355 C264.889996,42.6004988 264.255503,42.3576679 263.7385,42.107 C263.221497,41.8563321 262.822001,41.6526674 262.54,41.496 L264.937,36.138 C265.469669,36.4513349 266.299994,36.8429977 267.428,37.313 C268.556006,37.7830024 269.918992,38.018 271.517,38.018 Z" id="effects" fill="#3FA9F5" sketch:type="MSShapeGroup"></path>
    </g>
</svg>