<?xml version="1.0" encoding="utf-8"?>
<!-- Generator: Adobe Illustrator 15.1.0, SVG Export Plug-In  -->
<!DOCTYPE svg PUBLIC "-//W3C//DTD SVG 1.1//EN" "http://www.w3.org/Graphics/SVG/1.1/DTD/svg11.dtd" [
	<!ENTITY ns_flows "http://ns.adobe.com/Flows/1.0/">
]>
<svg version="1.1"
	 xmlns="http://www.w3.org/2000/svg" xmlns:xlink="http://www.w3.org/1999/xlink" xmlns:a="http://ns.adobe.com/AdobeSVGViewerExtensions/3.0/"
	 x="0px" y="0px" width="348px" height="63px" viewBox="-0.872 -0.12 348 63" enable-background="new -0.872 -0.12 348 63"
	 xml:space="preserve">
<defs>
</defs>
<path fill="#3FA9F5" d="M40.13,38.522L19.637,20.597l14.058-16.07C36.211,1.65,39.899,0,43.811,0c3.436,0,6.77,1.263,9.389,3.554
	c2.784,2.435,4.387,5.745,4.511,9.32c0.12,3.443-1.131,6.846-3.522,9.578L40.13,38.522z M26.351,20.147l13.331,11.66l10.925-12.488
	c1.592-1.818,2.426-4.049,2.349-6.28c-0.08-2.279-1.078-4.321-2.889-5.903c-1.752-1.533-3.974-2.377-6.256-2.377
	c-2.54,0-4.922,1.057-6.534,2.901L26.351,20.147z"/>
<path fill="#007FAA" d="M17.177,23.786L3.033,39.958c-4.582,5.234-3.908,13.43,1.589,18.238c5.438,4.754,14.243,4.854,18.824-0.383
	l14.147-16.169L17.177,23.786z M13.711,56.024c-2.321,0-4.17-0.679-5.512-2.025c-2.649-2.66-2.79-7.49-2.79-7.49l13.324-15.238
	l2.854,2.437L13.711,56.024z"/>
<path fill="#007FAA" d="M80.813,25.029c1.717,0.612,3.138,1.43,4.261,2.452l-3.468,4.359c-0.793-0.693-1.734-1.221-2.823-1.584
	c-1.091-0.364-2.164-0.546-3.221-0.546c-2.378,0-3.567,0.711-3.567,2.13c0,0.464,0.141,0.843,0.422,1.141
	c0.28,0.297,0.751,0.586,1.411,0.866c0.661,0.281,1.734,0.652,3.221,1.115c2.278,0.727,3.988,1.733,5.128,3.021
	c1.139,1.288,1.709,2.956,1.709,5.004c0,1.685-0.43,3.213-1.288,4.582c-0.859,1.371-2.173,2.47-3.938,3.295
	c-1.768,0.824-3.956,1.239-6.564,1.239c-2.279,0-4.377-0.397-6.292-1.189s-3.468-1.834-4.656-3.122l4.013-4.16
	c0.858,0.858,1.883,1.552,3.071,2.08c1.188,0.529,2.477,0.792,3.864,0.792c1.354,0,2.378-0.247,3.071-0.742s1.04-1.122,1.04-1.883
	c0-0.594-0.141-1.064-0.421-1.411c-0.28-0.348-0.768-0.678-1.462-0.992c-0.693-0.313-1.8-0.733-3.318-1.263
	c-4.459-1.52-6.688-4.078-6.688-7.679c0-1.519,0.438-2.923,1.313-4.211c0.874-1.288,2.154-2.312,3.839-3.072
	c1.685-0.759,3.716-1.139,6.094-1.139C77.345,24.113,79.096,24.419,80.813,25.029z"/>
<path fill="#007FAA" d="M87.691,51.262l3.666-26.307h7.729l-3.666,26.307H87.691z M100.001,12.198
	c0.743,0.743,1.115,1.692,1.115,2.849c0,1.354-0.488,2.511-1.462,3.469c-0.975,0.957-2.188,1.453-3.642,1.485
	c-1.222-0.032-2.204-0.412-2.947-1.139s-1.114-1.668-1.114-2.824c0-1.387,0.487-2.56,1.461-3.518
	c0.975-0.958,2.172-1.437,3.592-1.437C98.259,11.084,99.258,11.455,100.001,12.198z"/>
<path fill="#007FAA" d="M124.699,51.262h-6.837l0.049-3.766c-0.925,1.388-2.039,2.503-3.344,3.344
	c-1.305,0.843-2.799,1.265-4.483,1.265c-2.741,0-4.805-0.925-6.192-2.775c-1.387-1.85-2.081-4.459-2.081-7.827
	c0-2.675,0.438-5.342,1.313-8.001c0.875-2.658,2.271-4.888,4.187-6.688c1.915-1.799,4.36-2.699,7.332-2.699
	c1.156,0,2.229,0.23,3.221,0.693c0.99,0.463,1.833,1.073,2.526,1.833l1.833-12.979l7.629,0.842L124.699,51.262z M112.387,31.718
	c-0.941,1.271-1.61,2.808-2.006,4.607c-0.396,1.8-0.595,3.542-0.595,5.227c0,1.75,0.255,2.989,0.768,3.716
	c0.512,0.727,1.23,1.09,2.155,1.09c0.99,0,1.948-0.438,2.873-1.313c0.925-0.874,1.833-2.056,2.726-3.542l1.387-9.76
	c-0.496-0.66-1.024-1.147-1.586-1.462c-0.562-0.313-1.238-0.471-2.03-0.471C114.559,29.81,113.329,30.446,112.387,31.718z"/>
<path fill="#007FAA" d="M150.608,38.653c-3.139,1.569-7.184,2.584-12.138,3.047c0.164,3.104,1.717,4.657,4.656,4.657
	c1.09,0,2.172-0.199,3.245-0.595c1.073-0.396,2.222-1.007,3.442-1.833l2.775,4.657c-3.237,2.345-6.722,3.518-10.453,3.518
	c-3.732,0-6.573-0.999-8.521-2.998c-1.949-1.997-2.923-4.714-2.923-8.149c0-2.643,0.504-5.252,1.511-7.828
	c1.008-2.576,2.634-4.722,4.88-6.439c2.245-1.718,5.086-2.576,8.521-2.576c3.072,0,5.458,0.678,7.159,2.031
	c1.701,1.354,2.552,3.071,2.552,5.152C155.314,34.633,153.745,37.085,150.608,38.653z M145.43,35.11
	c1.403-0.99,2.105-2.112,2.105-3.368c0-0.693-0.207-1.271-0.619-1.733c-0.413-0.463-1.099-0.693-2.056-0.693
	c-1.685,0-3.022,0.727-4.013,2.179c-0.991,1.454-1.669,3.27-2.031,5.45C141.822,36.713,144.026,36.102,145.43,35.11z"/>
<path fill="#3FA9F5" d="M177.885,38.653c-3.138,1.569-7.184,2.584-12.138,3.047c0.165,3.104,1.717,4.657,4.656,4.657
	c1.091,0,2.172-0.199,3.246-0.595c1.072-0.396,2.221-1.007,3.442-1.833l2.774,4.657c-3.236,2.345-6.721,3.518-10.453,3.518
	s-6.572-0.999-8.521-2.998c-1.949-1.997-2.923-4.714-2.923-8.149c0-2.643,0.503-5.252,1.511-7.828s2.634-4.722,4.881-6.439
	c2.245-1.718,5.085-2.576,8.521-2.576c3.071,0,5.457,0.678,7.158,2.031c1.702,1.354,2.553,3.071,2.553,5.152
	C182.592,34.633,181.023,37.085,177.885,38.653z M172.708,35.11c1.402-0.99,2.105-2.112,2.105-3.368c0-0.693-0.207-1.271-0.62-1.733
	s-1.098-0.693-2.055-0.693c-1.686,0-3.023,0.727-4.014,2.179c-0.991,1.454-1.668,3.27-2.031,5.45
	C169.099,36.713,171.304,36.102,172.708,35.11z"/>
<path fill="#3FA9F5" d="M199.105,20.298c-0.611,0.563-0.999,1.47-1.164,2.725l-0.248,1.933h14.351l-1.586,5.449H196.9l-2.526,17.983
	c-0.364,2.742-1.09,4.995-2.179,6.763c-1.091,1.767-2.445,3.179-4.063,4.236c-1.618,1.056-3.616,2.014-5.994,2.873l-1.932-5.648
	c2.015-0.76,3.518-1.701,4.508-2.823c0.991-1.123,1.635-2.824,1.933-5.103l2.576-18.281h-3.915l0.744-5.449h3.913l0.348-2.427
	c0.362-2.643,1.485-4.781,3.368-6.416s4.36-2.452,7.432-2.452c2.707,0,5.152,0.727,7.331,2.179l-2.725,4.707
	c-1.089-0.727-2.41-1.09-3.963-1.09C200.599,19.456,199.715,19.737,199.105,20.298z"/>
<path fill="#3FA9F5" d="M218.309,20.298c-0.61,0.563-0.998,1.47-1.164,2.725l-0.248,1.933h6.095l-1.586,5.449h-5.301l-2.526,17.983
	c-0.364,2.742-1.09,4.995-2.18,6.763c-1.091,1.767-2.445,3.179-4.063,4.236c-1.619,1.056-3.616,2.014-5.994,2.873l-1.933-5.648
	c2.016-0.76,3.518-1.701,4.509-2.823c0.991-1.123,1.635-2.824,1.933-5.103l2.576-18.281h-3.915l0.744-5.449h3.913l0.347-2.427
	c0.363-2.643,1.486-4.781,3.369-6.416s4.36-2.452,7.431-2.452c2.708,0,5.152,0.727,7.332,2.179l-2.725,4.707
	c-1.09-0.727-2.411-1.09-3.963-1.09C219.804,19.456,218.92,19.737,218.309,20.298z"/>
<path fill="#3FA9F5" d="M242.304,38.653c-3.138,1.569-7.184,2.584-12.138,3.047c0.165,3.104,1.717,4.657,4.656,4.657
	c1.091,0,2.172-0.199,3.246-0.595c1.072-0.396,2.22-1.007,3.442-1.833l2.774,4.657c-3.236,2.345-6.721,3.518-10.453,3.518
	s-6.573-0.999-8.521-2.998c-1.949-1.997-2.923-4.714-2.923-8.149c0-2.643,0.503-5.252,1.511-7.828
	c1.007-2.576,2.634-4.722,4.881-6.439c2.245-1.718,5.085-2.576,8.521-2.576c3.071,0,5.457,0.678,7.158,2.031
	c1.702,1.354,2.553,3.071,2.553,5.152C247.011,34.633,245.442,37.085,242.304,38.653z M237.127,35.11
	c1.403-0.99,2.105-2.112,2.105-3.368c0-0.693-0.207-1.271-0.62-1.733s-1.098-0.693-2.055-0.693c-1.686,0-3.023,0.727-4.014,2.179
	c-0.991,1.454-1.668,3.27-2.031,5.45C233.518,36.713,235.723,36.102,237.127,35.11z"/>
<path fill="#3FA9F5" d="M271.979,27.481l-3.766,4.459c-0.727-0.66-1.453-1.131-2.179-1.412c-0.728-0.28-1.536-0.421-2.429-0.421
	c-2.411,0-4.128,1.114-5.152,3.345c-1.024,2.229-1.535,4.764-1.535,7.604c0,1.751,0.354,2.996,1.064,3.74
	c0.711,0.743,1.726,1.114,3.047,1.114c0.893,0,1.726-0.148,2.503-0.446c0.775-0.297,1.691-0.759,2.748-1.387l2.824,5.003
	c-2.741,2.016-5.747,3.023-9.017,3.023c-3.533,0-6.291-1.017-8.272-3.047c-1.981-2.031-2.973-4.798-2.973-8.299
	c0-2.51,0.521-5.044,1.561-7.604c1.04-2.56,2.667-4.706,4.88-6.44c2.213-1.733,4.97-2.601,8.273-2.601
	C266.992,24.113,269.798,25.236,271.979,27.481z"/>
<path fill="#3FA9F5" d="M283.505,43.78c0,0.761,0.148,1.297,0.445,1.61c0.298,0.314,0.776,0.471,1.437,0.471
	c0.991,0,1.982-0.28,2.974-0.842l2.08,5.152c-1.09,0.628-2.279,1.105-3.567,1.437c-1.288,0.329-2.511,0.496-3.665,0.496
	c-2.478,0-4.344-0.62-5.599-1.859c-1.256-1.237-1.883-3.063-1.883-5.474c0-0.693,0.05-1.437,0.148-2.229l1.734-12.138h-3.617
	l0.744-5.449h3.963l1.635-5.846l6.639-0.743l-0.941,6.589h5.945l-1.536,5.449h-5.152l-1.685,12.138
	C283.538,43.203,283.505,43.615,283.505,43.78z"/>
<path fill="#007FAA" d="M302.43,44.301c0.743,0.776,1.114,1.727,1.114,2.849c0,1.321-0.487,2.478-1.461,3.468
	c-0.975,0.991-2.123,1.487-3.444,1.487c-1.156,0-2.104-0.39-2.849-1.164c-0.742-0.776-1.114-1.742-1.114-2.899
	c0-1.288,0.496-2.427,1.486-3.418c0.991-0.99,2.147-1.486,3.469-1.486C300.753,43.137,301.686,43.525,302.43,44.301z"/>
<path fill="#007FAA" d="M307.656,51.262l3.666-26.307h7.729l-3.666,26.307H307.656z M319.967,12.198
	c0.742,0.743,1.114,1.692,1.114,2.849c0,1.354-0.487,2.511-1.461,3.469c-0.975,0.957-2.188,1.453-3.642,1.485
	c-1.222-0.032-2.205-0.412-2.947-1.139c-0.744-0.727-1.115-1.668-1.115-2.824c0-1.387,0.487-2.56,1.462-3.518
	c0.974-0.958,2.171-1.437,3.591-1.437C318.224,11.084,319.224,11.455,319.967,12.198z"/>
<path fill="#007FAA" d="M343.359,27.061c1.932,1.999,2.897,4.715,2.897,8.149c0,2.676-0.479,5.301-1.437,7.877
	s-2.535,4.724-4.73,6.441c-2.197,1.717-5.029,2.576-8.497,2.576c-3.469,0-6.168-0.991-8.1-2.974
	c-1.933-1.981-2.898-4.722-2.898-8.224c0-2.707,0.479-5.342,1.437-7.902c0.958-2.559,2.534-4.681,4.731-6.365
	c2.195-1.685,5.028-2.526,8.496-2.526C338.726,24.08,341.426,25.063,343.359,27.061z M329.882,33.526
	c-0.941,2.444-1.412,5.069-1.412,7.877c0,1.717,0.306,2.972,0.918,3.765c0.61,0.793,1.526,1.189,2.749,1.189
	c2.312-0.032,3.93-1.288,4.855-3.766c0.924-2.477,1.387-5.118,1.387-7.927c0-1.65-0.307-2.864-0.916-3.642
	c-0.612-0.775-1.529-1.164-2.75-1.164C332.435,29.859,330.824,31.082,329.882,33.526z"/>
</svg>
