<?xml version="1.0" encoding="UTF-8" standalone="no"?>
<svg width="331px" height="60px" viewBox="0 0 331 60" version="1.1" xmlns="http://www.w3.org/2000/svg" xmlns:xlink="http://www.w3.org/1999/xlink" xmlns:sketch="http://www.bohemiancoding.com/sketch/ns">
    <title>Untitled 13</title>
    <description>Created with Sketch (http://www.bohemiancoding.com/sketch)</description>
    <defs></defs>
    <g id="Page-1" stroke="none" stroke-width="1" fill="none" fill-rule="evenodd" sketch:type="MSPage">
        <g id="logo" sketch:type="MSLayerGroup">
            <path d="M48.479,5 L48.479,33.212 C48.479,34.632 48.037,36.299 47.322,37.843 C46.609,39.383 45.624,40.8 44.541,41.72 L26.74,54.377 L8.939,41.718 C7.856,40.8 6.87,39.383 6.157,37.841 C5.443,36.299 5,34.632 5,33.211 L5,5 L48.479,5 L48.479,5 Z M48.479,0 L5,0 C2.239,0 0,2.239 0,5 L0,33.211 C0,35.885 0.882,38.349 1.622,39.943 C2.358,41.536 3.667,43.803 5.708,45.532 C5.815,45.624 5.927,45.711 6.042,45.792 L23.843,58.452 C24.711,59.068 25.726,59.377 26.741,59.377 C27.756,59.377 28.771,59.068 29.638,58.452 L47.439,45.795 C47.556,45.712 47.669,45.623 47.779,45.53 C49.815,43.801 51.123,41.537 51.86,39.943 C52.599,38.347 53.48,35.883 53.48,33.212 L53.48,5 C53.479,2.239 51.241,0 48.479,0 L48.479,0 L48.479,0 Z" id="Shape" fill="#3FA9F5" sketch:type="MSShapeGroup"></path>
            <path d="M10.385,10.164 L10.385,32.348 C10.385,33.117 10.665,34.18 11.135,35.194 C11.581,36.156 12.177,37.025 12.739,37.535 L26.741,47.492 L40.743,37.535 C41.306,37.025 41.901,36.156 42.347,35.194 C42.816,34.181 43.096,33.117 43.096,32.348 L43.096,10.164 L10.385,10.164 L10.385,10.164 Z M35.74,28.843 L29.748,28.843 L29.748,34.821 L23.732,34.821 L23.732,28.843 L17.732,28.843 L17.732,22.827 L23.732,22.827 L23.732,16.824 L29.748,16.824 L29.748,22.827 L35.74,22.827 L35.74,28.843 L35.74,28.843 L35.74,28.843 Z" id="Shape" fill="#007FAA" sketch:type="MSShapeGroup"></path>
        </g>
        <text id="sideeffects.io" sketch:type="MSTextLayer" font-family="Ubuntu" font-size="47" font-style="italic" font-weight="bold" sketch:alignment="middle" line-spacing="130" letter-spacing="-2">
            <tspan x="57" y="-38" fill="#007FAA">side</tspan>
            <tspan x="137.642" y="-38" fill="#3FA9F5">effects</tspan>
            <tspan x="281.071" y="-38" fill="#007FAA">.io</tspan>
        </text>
    </g>
</svg>