<?xml version="1.0" encoding="utf-8"?>
<!-- Generator: Adobe Illustrator 15.1.0, SVG Export Plug-In  -->
<!DOCTYPE svg PUBLIC "-//W3C//DTD SVG 1.1//EN" "http://www.w3.org/Graphics/SVG/1.1/DTD/svg11.dtd" [
	<!ENTITY ns_flows "http://ns.adobe.com/Flows/1.0/">
]>
<svg version="1.1"
	 xmlns="http://www.w3.org/2000/svg" xmlns:xlink="http://www.w3.org/1999/xlink" xmlns:a="http://ns.adobe.com/AdobeSVGViewerExtensions/3.0/"
	 x="0px" y="0px" width="371px" height="63px" viewBox="-0.491 -0.374 371 63" enable-background="new -0.491 -0.374 371 63"
	 xml:space="preserve">
<defs>
</defs>
<path fill="#007FAA" d="M75.599,45.897c1.423,0,2.253-0.695,2.491-2.084l0.305-1.881c0.067-0.204,0.102-0.458,0.102-0.764
	c0-0.914-0.644-1.372-1.932-1.372h-6.608c-2.44,0-4.253-0.593-5.439-1.778c-0.882-0.916-1.322-2.187-1.322-3.813
	c0-0.543,0.051-1.136,0.152-1.779l0.407-2.491c0.373-2.237,1.195-3.914,2.465-5.032c1.271-1.119,3.194-1.678,5.77-1.678
	c2.575,0,5.261,0.094,8.057,0.279c2.796,0.188,4.685,0.482,5.668,0.89l-0.61,3.914H72.499c-1.051,0-1.771,0.212-2.161,0.636
	c-0.39,0.424-0.635,0.957-0.737,1.602l-0.254,1.83c-0.17,1.051-0.051,1.694,0.356,1.932c0.305,0.17,0.661,0.246,1.067,0.229
	s0.644-0.025,0.711-0.025h6.761c2.338,0,4.032,0.695,5.083,2.084c0.779,1.017,1.169,2.254,1.169,3.711
	c0,0.44-0.034,0.898-0.102,1.372l-0.458,3.151c-0.406,2.644-1.44,4.372-3.101,5.186c-1.322,0.678-3.059,1.017-5.21,1.017
	c-2.152,0-4.796-0.119-7.93-0.356c-3.135-0.236-5.092-0.541-5.872-0.914l0.61-3.863H75.599z"/>
<path fill="#007FAA" d="M87.646,50.624l4.27-26.992h5.896l-4.27,26.992H87.646z M94.204,14.38h4.321
	c0.644,0,0.966,0.323,0.966,0.967c0,0.102-0.018,0.203-0.051,0.305l-0.559,3.863c-0.102,0.779-0.559,1.169-1.373,1.169h-4.321
	c-0.339,0-0.602-0.102-0.788-0.305c-0.187-0.204-0.263-0.491-0.229-0.864l0.61-3.863C92.882,14.805,93.356,14.38,94.204,14.38z"/>
<path fill="#007FAA" d="M105.005,25.767c0.762-0.744,1.719-1.354,2.872-1.83c1.151-0.474,2.397-0.711,3.736-0.711
	c1.338,0,2.821,0.17,4.448,0.508c1.626,0.34,3.05,0.797,4.27,1.373l2.287-14.386h5.846l-6.354,39.903h-4.676l-0.763-2.846
	c-1.051,0.779-2.423,1.499-4.118,2.16c-1.695,0.66-3.321,0.991-4.88,0.991c-1.559,0-2.897-0.415-4.016-1.245
	s-1.915-1.906-2.389-3.229c-0.644-1.83-0.966-3.609-0.966-5.338c0-1.728,0.135-3.329,0.407-4.803
	c0.271-1.475,0.576-2.813,0.915-4.016c0.338-1.203,0.796-2.406,1.372-3.609S104.243,26.513,105.005,25.767z M106.301,40.864
	c0,3.221,1.05,4.83,3.152,4.83c2.644,0,5.269-0.645,7.879-1.932l2.288-14.488c-2.203-0.744-4.677-1.118-7.421-1.118
	c-0.915,0-1.678,0.221-2.288,0.661c-1.423,0.982-2.508,3.744-3.253,8.285C106.42,38.526,106.301,39.78,106.301,40.864z"/>
<path fill="#007FAA" d="M142.9,23.124c6.813,0,10.219,2.271,10.219,6.812c0,2.236-0.492,4.092-1.475,5.565
	c-0.983,1.475-2.119,2.518-3.406,3.127c-2.439,1.187-4.965,1.779-7.574,1.779c-1.288,0-2.508-0.076-3.66-0.229
	c-1.152-0.152-1.932-0.313-2.338-0.483c-0.17,1.051-0.254,2.017-0.254,2.897c0,0.882,0.169,1.576,0.508,2.084
	c0.542,0.882,1.728,1.34,3.558,1.373c0.644,0.033,1.83,0.051,3.559,0.051s4.404-0.287,8.031-0.864l-0.66,4.271
	c-3.491,1.016-7.304,1.524-11.438,1.524c-0.711,0-1.423-0.018-2.135-0.051c-3.22-0.102-5.355-1.405-6.405-3.914
	c-0.577-1.355-0.864-2.991-0.864-4.905s0.178-3.83,0.534-5.744c0.355-1.914,0.686-3.397,0.991-4.448
	c0.305-1.05,0.686-2.093,1.144-3.126s1.008-1.873,1.652-2.517c0.644-0.644,1.423-1.22,2.338-1.728
	C136.986,23.615,139.545,23.124,142.9,23.124z M135.225,35.73c0.847,0.102,1.686,0.152,2.517,0.152c0.83,0,1.525-0.008,2.084-0.025
	c0.559-0.017,1.279-0.109,2.161-0.279c0.881-0.169,1.652-0.407,2.313-0.712c0.661-0.305,1.262-0.745,1.805-1.322
	c0.712-0.778,1.067-1.685,1.067-2.719c0-1.033-0.322-1.745-0.966-2.135c-0.645-0.39-1.863-0.585-3.66-0.585
	c-2.439,0-4.151,0.56-5.134,1.677c-0.848,0.984-1.441,2.271-1.779,3.864c-0.068,0.339-0.152,0.737-0.254,1.194
	C135.275,35.298,135.225,35.595,135.225,35.73z"/>
<path fill="#3FA9F5" d="M170.146,23.124c6.813,0,10.219,2.271,10.219,6.812c0,2.236-0.492,4.092-1.475,5.565
	c-0.983,1.475-2.119,2.518-3.406,3.127c-2.439,1.187-4.965,1.779-7.574,1.779c-1.288,0-2.508-0.076-3.66-0.229
	s-1.932-0.313-2.338-0.483c-0.17,1.051-0.254,2.017-0.254,2.897c0,0.882,0.169,1.576,0.508,2.084
	c0.542,0.882,1.729,1.34,3.559,1.373c0.644,0.033,1.83,0.051,3.559,0.051s4.404-0.287,8.031-0.864l-0.66,4.271
	c-3.491,1.016-7.304,1.524-11.438,1.524c-0.712,0-1.424-0.018-2.135-0.051c-3.221-0.102-5.355-1.405-6.406-3.914
	c-0.576-1.355-0.863-2.991-0.863-4.905s0.178-3.83,0.533-5.744s0.687-3.397,0.992-4.448c0.305-1.05,0.686-2.093,1.143-3.126
	c0.458-1.033,1.008-1.873,1.652-2.517c0.644-0.644,1.424-1.22,2.338-1.728C164.232,23.615,166.792,23.124,170.146,23.124z
	 M162.47,35.73c0.848,0.102,1.686,0.152,2.518,0.152c0.829,0,1.524-0.008,2.084-0.025c0.559-0.017,1.278-0.109,2.16-0.279
	c0.881-0.169,1.652-0.407,2.313-0.712c0.661-0.305,1.262-0.745,1.805-1.322c0.712-0.778,1.067-1.685,1.067-2.719
	c0-1.033-0.322-1.745-0.966-2.135c-0.645-0.39-1.863-0.585-3.66-0.585c-2.439,0-4.151,0.56-5.134,1.677
	c-0.848,0.984-1.44,2.271-1.779,3.864c-0.068,0.339-0.152,0.737-0.254,1.194C162.521,35.298,162.47,35.595,162.47,35.73z"/>
<path fill="#3FA9F5" d="M198.41,10.721c2.777,0,5.082,0.406,6.912,1.22l-0.559,3.559h-5.033h-0.051c-1.457,0-2.432,0.39-2.922,1.169
	c-0.492,0.78-0.941,2.474-1.348,5.083l-0.305,1.881h7.219l-0.764,4.83h-7.218l-3.66,22.162h-5.896l3.609-22.162h-4.575l0.66-3.914
	l4.729-0.916l0.508-2.948c0.406-2.507,0.949-4.474,1.627-5.896C192.732,12.076,195.087,10.721,198.41,10.721z"/>
<path fill="#3FA9F5" d="M217.929,10.721c2.777,0,5.082,0.406,6.912,1.22l-0.559,3.559h-5.033h-0.051
	c-1.457,0-2.432,0.39-2.922,1.169c-0.492,0.78-0.941,2.474-1.348,5.083l-0.305,1.881h7.219l-0.764,4.83h-7.218l-3.66,22.162h-5.896
	l3.609-22.162h-4.575l0.66-3.914l4.729-0.916l0.508-2.948c0.406-2.507,0.949-4.474,1.627-5.896
	C212.251,12.076,214.607,10.721,217.929,10.721z"/>
<path fill="#3FA9F5" d="M236.431,23.124c6.813,0,10.218,2.271,10.218,6.812c0,2.236-0.491,4.092-1.474,5.565
	c-0.984,1.475-2.119,2.518-3.406,3.127c-2.44,1.187-4.965,1.779-7.574,1.779c-1.289,0-2.508-0.076-3.66-0.229
	s-1.932-0.313-2.338-0.483c-0.17,1.051-0.254,2.017-0.254,2.897c0,0.882,0.168,1.576,0.508,2.084
	c0.541,0.882,1.729,1.34,3.559,1.373c0.643,0.033,1.83,0.051,3.559,0.051c1.728,0,4.404-0.287,8.031-0.864l-0.661,4.271
	c-3.491,1.016-7.304,1.524-11.438,1.524c-0.712,0-1.423-0.018-2.135-0.051c-3.22-0.102-5.354-1.405-6.405-3.914
	c-0.576-1.355-0.864-2.991-0.864-4.905s0.179-3.83,0.534-5.744s0.686-3.397,0.991-4.448c0.305-1.05,0.687-2.093,1.144-3.126
	s1.008-1.873,1.652-2.517c0.643-0.644,1.423-1.22,2.338-1.728C230.517,23.615,233.076,23.124,236.431,23.124z M228.755,35.73
	c0.847,0.102,1.686,0.152,2.517,0.152c0.829,0,1.524-0.008,2.084-0.025c0.56-0.017,1.278-0.109,2.16-0.279
	c0.881-0.169,1.652-0.407,2.313-0.712c0.66-0.305,1.262-0.745,1.805-1.322c0.711-0.778,1.066-1.685,1.066-2.719
	c0-1.033-0.322-1.745-0.965-2.135c-0.645-0.39-1.864-0.585-3.66-0.585c-2.439,0-4.152,0.56-5.135,1.677
	c-0.848,0.984-1.44,2.271-1.779,3.864c-0.068,0.339-0.152,0.737-0.254,1.194S228.755,35.595,228.755,35.73z"/>
<path fill="#3FA9F5" d="M255.621,24.471c0.897-0.524,1.744-0.864,2.541-1.017s1.838-0.229,3.127-0.229
	c1.287,0,3.117,0.145,5.49,0.432c2.371,0.289,4.422,0.67,6.15,1.145l-0.61,3.813c-3.761-0.271-6.583-0.407-8.464-0.407
	s-3.024,0.034-3.431,0.102c-0.407,0.068-0.864,0.263-1.372,0.585c-0.509,0.322-0.934,0.805-1.271,1.449
	c-0.746,1.49-1.406,3.795-1.982,6.912c-0.305,2.068-0.457,3.609-0.457,4.627c0,1.016,0.178,1.83,0.533,2.439
	s0.805,1.034,1.348,1.271c0.541,0.237,1.372,0.356,2.49,0.356c2.541,0,5.439-0.135,8.692-0.407l1.627-0.102l-0.61,3.863
	c-2,0.644-3.855,1.076-5.566,1.296c-1.711,0.221-3.194,0.331-4.447,0.331c-1.254,0-2.068,0-2.44,0
	c-2.778-0.034-4.847-1.22-6.202-3.559c-0.847-1.456-1.27-3.159-1.27-5.108s0.178-3.973,0.533-6.074s0.83-3.982,1.424-5.643
	c0.592-1.66,1.211-2.957,1.855-3.889C253.951,25.726,254.722,24.997,255.621,24.471z"/>
<path fill="#3FA9F5" d="M284.214,50.624c-4.203,0-6.304-2.236-6.304-6.709c0-0.881,0.084-1.848,0.254-2.898l1.982-12.605h-4.626
	l0.56-3.559l4.829-1.271l2.287-7.523h4.779l-1.17,7.523h6.71l-0.763,4.83h-6.709l-1.881,11.895
	c-0.374,2.474-0.306,4.033,0.203,4.676c0.305,0.34,0.813,0.61,1.524,0.814c2.101,0.644,3.202,0.965,3.304,0.965l-0.609,3.863
	H284.214z"/>
<path fill="#3FA9F5" d="M307.75,45.897c1.423,0,2.253-0.695,2.49-2.084l0.305-1.881c0.068-0.204,0.102-0.458,0.102-0.764
	c0-0.914-0.644-1.372-1.932-1.372h-6.607c-2.44,0-4.254-0.593-5.439-1.778c-0.882-0.916-1.322-2.187-1.322-3.813
	c0-0.543,0.051-1.136,0.152-1.779l0.407-2.491c0.372-2.237,1.194-3.914,2.466-5.032c1.271-1.119,3.193-1.678,5.77-1.678
	c2.574,0,5.262,0.094,8.057,0.279c2.796,0.188,4.685,0.482,5.668,0.89l-0.609,3.914h-12.607c-1.051,0-1.771,0.212-2.16,0.636
	c-0.391,0.424-0.635,0.957-0.736,1.602l-0.255,1.83c-0.17,1.051-0.051,1.694,0.356,1.932c0.305,0.17,0.66,0.246,1.066,0.229
	c0.407-0.018,0.645-0.025,0.712-0.025h6.761c2.338,0,4.033,0.695,5.084,2.084c0.779,1.017,1.169,2.254,1.169,3.711
	c0,0.44-0.034,0.898-0.103,1.372l-0.457,3.151c-0.406,2.644-1.44,4.372-3.101,5.186c-1.321,0.678-3.059,1.017-5.21,1.017
	c-2.152,0-4.797-0.119-7.93-0.356c-3.136-0.236-5.093-0.541-5.872-0.914l0.61-3.863H307.75z"/>
<path fill="#007FAA" d="M321.677,44.22h3.762c0.711,0,1.066,0.305,1.066,0.915c0,0.102,0,0.221,0,0.355l-0.66,3.966
	c-0.136,0.779-0.609,1.168-1.424,1.168h-3.762c-0.373,0-0.652-0.109-0.838-0.33c-0.188-0.22-0.264-0.5-0.229-0.838l0.66-3.966
	C320.355,44.644,320.83,44.22,321.677,44.22z"/>
<path fill="#007FAA" d="M332.25,50.624l4.271-26.992h5.896l-4.27,26.992H332.25z M338.808,14.38h4.32
	c0.645,0,0.967,0.323,0.967,0.967c0,0.102-0.018,0.203-0.051,0.305l-0.56,3.863c-0.103,0.779-0.56,1.169-1.372,1.169h-4.321
	c-0.339,0-0.603-0.102-0.788-0.305c-0.187-0.204-0.263-0.491-0.229-0.864l0.609-3.863C337.486,14.805,337.96,14.38,338.808,14.38z"
	/>
<path fill="#007FAA" d="M359.598,23.327c4.372,0,7.337,1.187,8.896,3.559c1.017,1.525,1.525,3.643,1.525,6.354
	c0,1.424-0.137,3-0.407,4.729c-0.813,5.016-2.194,8.421-4.143,10.217c-1.949,1.797-5.185,2.694-9.709,2.694s-7.6-1.085-9.227-3.253
	c-1.085-1.492-1.626-3.576-1.626-6.253c0-1.288,0.178-3.024,0.533-5.21c0.355-2.187,0.872-4.151,1.551-5.897
	c0.678-1.745,1.592-3.143,2.744-4.193c1.152-1.05,2.499-1.771,4.041-2.161C355.32,23.522,357.259,23.327,359.598,23.327z
	 M353.802,29.885c-0.644,0.644-1.152,1.56-1.524,2.745c-0.373,1.187-0.712,2.693-1.017,4.523s-0.457,3.152-0.457,3.965
	c0,0.814,0.066,1.492,0.203,2.033c0.135,0.543,0.321,1,0.559,1.373s0.61,0.661,1.119,0.864c0.779,0.339,1.863,0.501,3.253,0.483
	s2.423-0.094,3.101-0.229c0.678-0.136,1.348-0.483,2.008-1.043c0.661-0.559,1.195-1.398,1.602-2.516
	c0.406-1.119,0.745-2.559,1.017-4.321c0.339-1.999,0.509-3.489,0.509-4.474c0-0.982-0.068-1.795-0.203-2.439
	c-0.137-0.644-0.441-1.152-0.916-1.525c-0.813-0.678-2.025-1.017-3.635-1.017s-2.787,0.103-3.532,0.306
	C355.141,28.817,354.447,29.241,353.802,29.885z"/>
<path fill="#007FAA" d="M3.033,39.958l14.145-16.172l20.416,17.858L23.445,57.813C18.864,63.05,10.06,62.95,4.622,58.196l0,0
	C-0.875,53.388-1.549,45.192,3.033,39.958z"/>
<path fill="#3FA9F5" d="M40.13,38.522L19.637,20.597l14.058-16.07C36.211,1.65,39.898,0,43.811,0c3.435,0,6.77,1.263,9.388,3.554
	c2.785,2.435,4.387,5.745,4.511,9.32c0.12,3.443-1.131,6.846-3.522,9.578L40.13,38.522z M26.351,20.147l13.331,11.66l10.925-12.488
	c1.592-1.818,2.425-4.049,2.348-6.28c-0.08-2.279-1.078-4.321-2.889-5.903c-1.752-1.533-3.973-2.377-6.255-2.377
	c-2.54,0-4.922,1.057-6.535,2.901L26.351,20.147z"/>
<path fill="#FFFFFF" d="M13.593,55.771c-2.322,0-4.171-0.679-5.512-2.025c-2.649-2.66-2.79-7.49-2.79-7.49l13.324-15.238
	l2.854,2.437L13.593,55.771z"/>
</svg>
